HIERARCHY
ROOT Hips
{
	OFFSET 0.000000 0.000000 0.000000
	CHANNELS 6 Xposition Yposition Zposition Zrotation Yrotation Xrotation 
	JOINT LHipJoint
	{
		OFFSET 0.000000 0.000000 0.000000
		CHANNELS 3 Zrotation Yrotation Xrotation
		JOINT LeftUpLeg
		{
			OFFSET 1.363060 -1.794630 0.839290
			CHANNELS 3 Zrotation Yrotation Xrotation
			JOINT LeftLeg
			{
				OFFSET 2.448110 -6.726130 0.000000
				CHANNELS 3 Zrotation Yrotation Xrotation
				JOINT LeftFoot
				{
					OFFSET 2.562200 -7.039590 0.000000
					CHANNELS 3 Zrotation Yrotation Xrotation
					JOINT LeftToeBase
					{
						OFFSET 0.157640 -0.433110 2.322550
						CHANNELS 3 Zrotation Yrotation Xrotation
						End Site
						{
							OFFSET 0.000000 0.000000 0.000000
						}
					}
				}
			}
		}
	}
	JOINT RHipJoint
	{
		OFFSET 0.000000 0.000000 0.000000
		CHANNELS 3 Zrotation Yrotation Xrotation
		JOINT RightUpLeg
		{
			OFFSET -1.305520 -1.794630 0.839290
			CHANNELS 3 Zrotation Yrotation Xrotation
			JOINT RightLeg
			{
				OFFSET -2.542530 -6.985550 0.000000
				CHANNELS 3 Zrotation Yrotation Xrotation
				JOINT RightFoot
				{
					OFFSET -2.568260 -7.056230 0.000000
					CHANNELS 3 Zrotation Yrotation Xrotation
					JOINT RightToeBase
					{
						OFFSET -0.164730 -0.452590 2.363150
						CHANNELS 3 Zrotation Yrotation Xrotation
						End Site
						{
							OFFSET 0.000000 0.000000 0.000000
						}
					}
				}
			}
		}
	}
	JOINT LowerBack
	{
		OFFSET 0.000000 0.000000 0.000000
		CHANNELS 3 Zrotation Yrotation Xrotation
		JOINT Spine
		{
			OFFSET 0.028270 2.035590 -0.193380
			CHANNELS 3 Zrotation Yrotation Xrotation
			JOINT Spine1
			{
				OFFSET 0.056720 2.048850 -0.042750
				CHANNELS 3 Zrotation Yrotation Xrotation
				JOINT Neck
				{
					OFFSET 0.000000 0.000000 0.000000
					CHANNELS 3 Zrotation Yrotation Xrotation
					JOINT Neck1
					{
						OFFSET -0.054170 1.746240 0.172020
						CHANNELS 3 Zrotation Yrotation Xrotation
						JOINT Head
						{
							OFFSET 0.104070 1.761360 -0.123970
							CHANNELS 3 Zrotation Yrotation Xrotation
							End Site
							{
								OFFSET 0.000000 0.000000 0.000000
							}
						}
					}
				}
				JOINT LeftShoulder
				{
					OFFSET 0.000000 0.000000 0.000000
					CHANNELS 3 Zrotation Yrotation Xrotation
					JOINT LeftArm
					{
						OFFSET 3.362410 1.200890 -0.311210
						CHANNELS 3 Zrotation Yrotation Xrotation
						JOINT LeftForeArm
						{
							OFFSET 4.983000 -0.000000 -0.000000
							CHANNELS 3 Zrotation Yrotation Xrotation
							JOINT LeftHand
							{
								OFFSET 3.483560 -0.000000 -0.000000
								CHANNELS 3 Zrotation Yrotation Xrotation
								JOINT LeftFingerBase
								{
									OFFSET 0.000000 0.000000 0.000000
									CHANNELS 3 Zrotation Yrotation Xrotation
									JOINT LeftHandIndex1
									{
										OFFSET 0.715260 -0.000000 -0.000000
										CHANNELS 3 Zrotation Yrotation Xrotation
										End Site
										{
											OFFSET 0.000000 0.000000 0.000000
										}
									}
								}
								JOINT LThumb
								{
									OFFSET 0.000000 0.000000 0.000000
									CHANNELS 3 Zrotation Yrotation Xrotation
									End Site
									{
										OFFSET 0.000000 0.000000 0.000000
									}
								}
							}
						}
					}
				}
				JOINT RightShoulder
				{
					OFFSET 0.000000 0.000000 0.000000
					CHANNELS 3 Zrotation Yrotation Xrotation
					JOINT RightArm
					{
						OFFSET -3.136600 1.374050 -0.404650
						CHANNELS 3 Zrotation Yrotation Xrotation
						JOINT RightForeArm
						{
							OFFSET -5.241900 -0.000000 -0.000000
							CHANNELS 3 Zrotation Yrotation Xrotation
							JOINT RightHand
							{
								OFFSET -3.444170 -0.000000 -0.000000
								CHANNELS 3 Zrotation Yrotation Xrotation
								JOINT RightFingerBase
								{
									OFFSET 0.000000 0.000000 0.000000
									CHANNELS 3 Zrotation Yrotation Xrotation
									JOINT RightHandIndex1
									{
										OFFSET -0.622530 -0.000000 -0.000000
										CHANNELS 3 Zrotation Yrotation Xrotation
										End Site
										{
											OFFSET 0.000000 0.000000 0.000000
										}
									}
								}
								JOINT RThumb
								{
									OFFSET 0.000000 0.000000 0.000000
									CHANNELS 3 Zrotation Yrotation Xrotation
									End Site
									{
										OFFSET 0.000000 0.000000 0.000000
									}
								}
							}
						}
					}
				}
			}
		}
	}
}
MOTION
Frames: 4
Frame Time: 0.008333
24.346759 16.283273 2.315034 36.737462 -85.455948 -22.435301 -8.132270 2.227935 7.147306 -18.476441 -9.264672 -45.608129 -3.641525 0.061886 12.498203 -0.440593 -0.856527 9.936434 0.467701 -0.000000 -22.549200 10.304966 -5.542459 1.353409 6.867196 -9.029948 12.177427 1.315742 -1.391135 14.108118 0.823632 12.822497 19.424663 5.276100 -0.000000 -78.595500 -7.615894 4.071904 -10.097950 -3.425948 4.549706 -5.037747 -8.793784 4.501485 0.936047 12.785947 -1.928988 -8.195118 -4.092635 -0.327424 -0.205244 0.000000 0.000000 0.000000 0.770368 30.792491 1.253018 -38.437200 13.609339 -25.295321 -4.750530 -10.317252 0.004836 8.636823 0.003424 0.002728 -0.201676 -0.029285 -0.000000 0.000000 0.000000 0.000000 0.000000 0.000000 0.000000 20.907802 8.768996 -1.881259 77.022038 21.841712 29.232528 1.290765 65.112960 -0.019354 -4.461194 7.675904 -0.321364 0.086656 -0.463900 0.000000 0.000000 0.000000 0.000000 0.000000 0.000000 0.000000 
24.133337 16.318441 2.299753 40.274741 -84.925264 -26.010088 -7.861368 2.440996 7.227803 -19.201390 -9.724998 -45.013072 -3.690496 0.132371 13.244758 -0.399047 -0.663701 9.274768 0.527600 -0.000000 -21.591800 10.703997 -5.506713 1.389780 5.863173 -9.313449 11.139039 0.969131 -1.540128 16.245663 0.681606 14.105760 22.254715 6.515300 -0.000000 -79.678900 -8.319898 3.932279 -10.209885 -3.577139 4.502978 -5.063942 -8.784082 4.452941 0.917389 12.864153 -2.002117 -8.199783 -4.095943 -0.327576 -0.211202 0.000000 0.000000 0.000000 0.613561 30.624382 1.201984 -38.022241 12.837156 -25.126550 -4.769037 -10.200434 0.004293 8.642523 0.070166 0.007723 -0.199373 -0.027260 -0.000000 0.000000 0.000000 0.000000 0.000000 0.000000 0.000000 21.130117 8.615508 -1.849478 77.567410 21.145107 29.648656 1.329718 63.744342 -0.017656 -4.306866 7.761216 -0.313423 0.086194 -0.457072 0.000000 0.000000 0.000000 0.000000 0.000000 0.000000 0.000000 
23.925390 16.354799 2.285823 43.169769 -84.351790 -28.934452 -7.599266 2.609945 7.326129 -19.809628 -10.347847 -44.301583 -3.728405 0.178790 13.866965 -0.339919 -0.377356 8.496758 0.609400 -0.000000 -20.670100 11.100340 -5.434742 1.392224 4.837710 -9.654735 9.968933 0.638013 -1.656885 18.571874 0.511944 15.603294 25.047136 7.966100 -0.000000 -79.808900 -9.017467 3.786744 -10.285666 -3.720880 4.449840 -5.082052 -8.759983 4.397275 0.898701 12.908911 -2.062467 -8.206374 -4.097347 -0.327432 -0.218046 0.000000 0.000000 0.000000 0.415898 30.421796 1.154508 -37.698812 12.007563 -24.960352 -4.784972 -10.096499 0.003694 8.666070 0.150945 0.013818 -0.196424 -0.025101 -0.000000 0.000000 0.000000 0.000000 0.000000 0.000000 0.000000 21.299731 8.461777 -1.816296 78.076857 20.446493 29.971068 1.367763 62.302190 -0.015890 -4.132155 7.838655 -0.303394 0.085024 -0.449111 0.000000 0.000000 0.000000 0.000000 0.000000 0.000000 0.000000 
23.723525 16.392189 2.274993 45.290429 -83.787073 -31.070133 -7.374130 2.729701 7.427012 -20.279205 -11.036360 -43.534963 -3.751532 0.207174 14.404769 -0.270773 -0.062026 7.626229 0.688300 -0.000000 -19.762800 11.455984 -5.331513 1.376014 3.899844 -9.979719 8.679942 0.341471 -1.741916 21.049978 0.320915 17.116365 27.723946 9.513200 -0.000000 -78.948900 -9.643921 3.646429 -10.334221 -3.843741 4.393770 -5.092611 -8.723415 4.337936 0.882306 12.909974 -2.108740 -8.219152 -4.096481 -0.326943 -0.226174 0.000000 0.000000 0.000000 0.147995 30.207305 1.106037 -37.466151 11.110686 -24.774284 -4.799461 -10.009238 0.003078 8.706180 0.243381 0.020913 -0.192912 -0.022989 -0.000000 0.000000 0.000000 0.000000 0.000000 0.000000 0.000000 21.399055 8.311538 -1.782679 78.541631 19.751020 30.202795 1.405306 60.793263 -0.014133 -3.953342 7.912546 -0.292674 0.083456 -0.439894 0.000000 0.000000 0.000000 0.000000 0.000000 0.000000 0.000000 
